<?xml version="1.0" standalone="no"?>
<!DOCTYPE svg PUBLIC "-//W3C//DTD SVG 20010904//EN"
 "http://www.w3.org/TR/2001/REC-SVG-20010904/DTD/svg10.dtd">
<svg version="1.0" xmlns="http://www.w3.org/2000/svg"
 width="371.000000pt" height="371.000000pt" viewBox="0 0 371.000000 371.000000"
 preserveAspectRatio="xMidYMid meet">
<metadata>
Created by potrace 1.14, written by Peter Selinger 2001-2017
</metadata>
<g transform="translate(0.000000,371.000000) scale(0.100000,-0.100000)"
fill="#000000" stroke="none">
<path d="M889 3706 c-2 -2 -22 -6 -44 -9 -57 -8 -203 -52 -268 -81 -284 -125
-519 -438 -565 -755 -9 -60 -9 -1952 0 -2012 35 -242 191 -503 383 -644 22
-17 42 -32 45 -35 5 -5 19 -13 84 -49 52 -29 178 -78 231 -90 28 -6 64 -14 80
-18 44 -11 1963 -14 2010 -3 22 4 54 11 70 14 154 26 314 106 452 224 146 125
293 373 319 539 3 19 9 45 12 57 11 36 12 1956 1 2011 -27 138 -51 210 -103
312 -114 226 -331 413 -566 489 -168 54 -151 53 -1181 53 -526 0 -958 -1 -960
-3z"/>
</g>
</svg>
